<svg width="480" height="320" viewBox="0 0 480 320" xmlns="http://www.w3.org/2000/svg">

  <defs>
    <marker id="arr" viewBox="0 0 10 10" refX="8" refY="5"
            markerWidth="5" markerHeight="5" orient="auto-start-reverse">
      <path d="M2 1L8 5L2 9" fill="none" stroke="#f01454" stroke-width="1.8"
            stroke-linecap="round" stroke-linejoin="round"/>
    </marker>
  </defs>

  <!-- path fondo gris -->
  <path d="M 55 105 C 73 123, 102 168, 125 183 C 148 198, 175 165, 198 160 C 223 155, 248 130, 272 127 C 298 124, 324 100, 345 97 C 368 94, 380 80, 395 78"
        fill="none" stroke="#252840" stroke-width="2.5" stroke-linecap="round"/>

  <!-- path rojo completado hasta N3 -->
  <path d="M 55 105 C 73 123, 102 168, 125 183 C 148 198, 175 165, 198 160 C 223 155, 248 130, 272 127"
        fill="none" stroke="#f01454" stroke-width="2.5" stroke-linecap="round"
        marker-end="url(#arr)"/>

  <!-- N0 origen -->
  <circle cx="55"  cy="105" r="5"  fill="#40445e"/>

  <!-- N1 caída -->
  <circle cx="125" cy="183" r="8"  fill="#f01454"/>

  <!-- N2 -->
  <circle cx="198" cy="160" r="8"  fill="#f01454"/>

  <!-- N3 -->
  <circle cx="272" cy="127" r="8"  fill="#f01454"/>

  <!-- N4 hoy -->
  <circle cx="345" cy="97"  r="13" fill="#13162a" stroke="#f01454" stroke-width="1.5"/>
  <circle cx="345" cy="97"  r="5"  fill="#f01454"/>

  <!-- N5 futuro -->
  <circle cx="395" cy="78"  r="7"  fill="#13162a" stroke="#40445e" stroke-width="1.5"/>

  <!-- tick marks -->
  <line x1="125" y1="194" x2="125" y2="203" stroke="#f01454" stroke-width="1.5" stroke-linecap="round"/>
  <line x1="198" y1="171" x2="198" y2="180" stroke="#f01454" stroke-width="1.5" stroke-linecap="round"/>
  <line x1="272" y1="138" x2="272" y2="147" stroke="#f01454" stroke-width="1.5" stroke-linecap="round"/>
  <line x1="345" y1="113" x2="345" y2="122" stroke="#f5527a" stroke-width="1.5" stroke-linecap="round"/>
  <line x1="395" y1="88"  x2="395" y2="97"  stroke="#40445e" stroke-width="1.5" stroke-linecap="round"/>

  <!-- WORDMARK -->
  <text x="240" y="268"
        text-anchor="middle"
        font-family="'Inter', 'DM Sans', sans-serif"
        font-size="58"
        font-weight="600"
        letter-spacing="-2"
        fill="#c0c4e2">Fallen<tspan fill="#f01454">Way</tspan></text>

  <text x="240" y="295"
        text-anchor="middle"
        font-family="'Inter', 'DM Sans', sans-serif"
        font-size="11"
        font-weight="400"
        letter-spacing="5"
        fill="#7a7e9a">HABIT TRACKER</text>

</svg>
